<svg xmlns="http://www.w3.org/2000/svg" viewBox="0 0 128 128"><defs><style>.a{fill:#212121;}.b{fill:#eee;}.c{fill:#03a9f4;}</style></defs><title>icon-vscode-lmntal</title><circle class="a" cx="64" cy="64" r="64"/><path class="b" d="M19.82,53.92V71.78H29.2v2.58H16.6V53.92Z"/><path class="b" d="M33.09,74.36V53.92h3L42.8,66h.06l6.75-12h3.08V74.36H49.61V59.24h-.06l-5.32,9.52h-2.8l-5.32-9.52h-.06V74.36Z"/><path class="b" d="M57.28,74.36V53.92h3l9.58,15.26h.06V53.92h3V74.36h-3L60.36,59.1H60.3V74.36Z"/><path class="c" d="M82.51,60.36h5.26V62.6H82.51v6.72A4.36,4.36,0,0,0,83,71.77a2,2,0,0,0,1.71.63,6.08,6.08,0,0,0,2.52-.5l.42,2.18a10.08,10.08,0,0,1-3.36.56,4.83,4.83,0,0,1-3.54-1.09,5.11,5.11,0,0,1-1.08-3.67V62.6H76.57V60.36h3.08V55h2.86Z"/><path class="c" d="M91.1,70.44a4.58,4.58,0,0,1,2.06-3.91,10.1,10.1,0,0,1,5.92-1.47h1.4v-.14a3.4,3.4,0,0,0-.71-2.46,3.55,3.55,0,0,0-2.51-.7A9.81,9.81,0,0,0,92.36,63l-.42-2.24a11.08,11.08,0,0,1,5.32-1.26,6.81,6.81,0,0,1,4.59,1.27,5.17,5.17,0,0,1,1.43,4v5.6a18.38,18.38,0,0,0,.42,3.92H101a14.92,14.92,0,0,1-.25-2.24h-.06A5.35,5.35,0,0,1,98.57,74a7.08,7.08,0,0,1-3.12.67,4.4,4.4,0,0,1-3.16-1.12A4,4,0,0,1,91.1,70.44Zm9.38-3.3h-1.4a7.22,7.22,0,0,0-3.88.87,2.63,2.63,0,0,0-1.36,2.3,2.16,2.16,0,0,0,.63,1.64,2.31,2.31,0,0,0,1.67.6,4.29,4.29,0,0,0,3.05-1.22,4,4,0,0,0,1.29-3Z"/><path class="c" d="M108.44,74.36v-21h3v21Z"/></svg>